<mxfile host="app.diagrams.net" modified="2023-08-01T22:08:43.360Z" agent="Mozilla/5.0 (Macintosh; Intel Mac OS X 10.15; rv:102.0) Gecko/20100101 Firefox/102.0" version="21.6.6" etag="dSqXtiUi2plos0Jml8OU" type="github">
  <diagram name="Page-1" id="L6MHFjsiVPviXbI2Yugu">
    <mxGraphModel>
      <root>
        <mxCell id="0" />
        <mxCell id="1" parent="0" />
      </root>
    </mxGraphModel>
  </diagram>
</mxfile>
